<svg width="11" height="12" viewBox="0 0 11 12" fill="none" xmlns="http://www.w3.org/2000/svg">
<path d="M10.9531 0.403226C10.9238 0.325806 10.8827 0.254839 10.827 0.193548C10.7684 0.129032 10.7039 0.0806452 10.6306 0.0483871C10.5661 0.0193548 10.4929 0.00322581 10.4196 0H3.07036C2.74789 0 2.48406 0.290323 2.48406 0.645161C2.48406 1 2.74789 1.29032 3.07036 1.29032H8.98608L0.174058 10.8968C-0.0575285 11.1484 -0.0575285 11.5548 0.171127 11.8097C0.285454 11.9387 0.437891 12 0.587396 12C0.736902 12 0.886407 11.9387 1.00073 11.8129L9.82741 2.19032V8.72258C9.82741 9.07742 10.0912 9.36774 10.4137 9.36774C10.7362 9.36774 11 9.07742 11 8.72258V0.635484C11 0.554839 10.9824 0.474194 10.956 0.403226H10.9531Z" fill="#1D51A2"/>
</svg>
