<svg width="15" height="17" viewBox="0 0 15 17" fill="none" xmlns="http://www.w3.org/2000/svg">
<path fill-rule="evenodd" clip-rule="evenodd" d="M13.9286 4.28571V3.22071C13.9286 2.625 13.4464 2.14286 12.8507 2.14286H10.7143V3.21429H9.64286V2.14286H5.35714V3.21429H4.28571V2.14286H2.14929C1.55357 2.14286 1.07143 2.625 1.07143 3.22071V13.9221C1.07143 14.5179 1.55357 15 2.14929 15H12.8507C13.4464 15 13.9286 14.5179 13.9286 13.9221V5.35714H1.07143V4.28571H13.9286ZM10.7143 1.07143H12.8507C14.0379 1.07143 15 2.0325 15 3.22071V13.9221C15.0001 14.2044 14.9446 14.484 14.8367 14.7448C14.7287 15.0056 14.5704 15.2426 14.3708 15.4422C14.1712 15.6418 13.9342 15.8001 13.6734 15.9081C13.4125 16.0161 13.133 16.0716 12.8507 16.0714H2.14929C1.867 16.0716 1.58745 16.0161 1.32662 15.9081C1.0658 15.8001 0.828805 15.6418 0.629197 15.4422C0.42959 15.2426 0.27128 15.0056 0.163318 14.7448C0.0553562 14.484 -0.00014056 14.2044 2.67347e-07 13.9221V3.22071C2.67347e-07 2.03357 0.961072 1.07143 2.14929 1.07143H4.28571V0H5.35714V1.07143H9.64286V0H10.7143V1.07143ZM3.21429 7.5H5.35714V8.57143H3.21429V7.5ZM6.42857 7.5H8.57143V8.57143H6.42857V7.5ZM9.64286 7.5H11.7857V8.57143H9.64286V7.5ZM3.21429 9.64286H5.35714V10.7143H3.21429V9.64286ZM6.42857 9.64286H8.57143V10.7143H6.42857V9.64286ZM9.64286 9.64286H11.7857V10.7143H9.64286V9.64286ZM3.21429 11.7857H5.35714V12.8571H3.21429V11.7857ZM6.42857 11.7857H8.57143V12.8571H6.42857V11.7857ZM9.64286 11.7857H11.7857V12.8571H9.64286V11.7857Z" fill="#1D51A2"/>
</svg>
