<svg width="21" height="22" viewBox="0 0 21 22" fill="none" xmlns="http://www.w3.org/2000/svg">
<path fill-rule="evenodd" clip-rule="evenodd" d="M10.3781 0C16.1099 0 20.7562 4.72041 20.7562 10.5437C20.7562 16.367 16.1099 21.0874 10.3781 21.0874C4.64627 21.0874 0 16.367 0 10.5437C0 4.72041 4.64627 0 10.3781 0ZM2.28837 12.4521C2.65155 14.0362 3.45724 15.48 4.60861 16.6101C5.75997 17.7402 7.20805 18.5084 8.77882 18.8226C8.57852 16.0549 7.68289 14.3942 6.55168 13.4759C5.46821 12.5955 3.99867 12.2549 2.28837 12.451V12.4521ZM14.2045 13.4748C13.0733 14.3953 12.1776 16.0549 11.9773 18.8226C13.5483 18.5084 14.9964 17.7399 16.1478 16.6096C17.2992 15.4793 18.1048 14.0353 18.4678 12.451C16.7575 12.2549 15.288 12.5955 14.2045 13.4759V13.4748ZM10.3781 2.10874C8.44363 2.10839 6.56977 2.79432 5.08009 4.0481C3.5904 5.30187 2.5784 7.04477 2.21883 8.97584L2.17421 9.23732L4.46776 8.77129C5.07177 8.64899 5.64568 8.3253 6.28704 7.88562L6.78208 7.53557C7.60921 6.9388 8.83486 6.32621 10.3781 6.32621C11.8186 6.32621 12.9819 6.85972 13.8028 7.41643L14.4691 7.88562C15.0295 8.27047 15.5401 8.56569 16.0632 8.71647L16.2884 8.77129L18.582 9.23732C18.2754 7.25063 17.2803 5.44058 15.7761 4.1335C14.2718 2.82643 12.3575 2.10835 10.3781 2.10874Z" fill="#1D51A2"/>
</svg>
