<svg width="20" height="17" viewBox="0 0 20 17" fill="none" xmlns="http://www.w3.org/2000/svg">
<path d="M7.28601 5.00881e-07C6.53233 -0.000394611 5.79708 0.232977 5.18159 0.667953C4.5661 1.10293 4.10067 1.7181 3.84944 2.42867H0V4.85734H3.84944C4.10033 5.56838 4.56559 6.18409 5.18108 6.6196C5.79658 7.05512 6.53202 7.28899 7.28601 7.28899C8.04001 7.28899 8.77544 7.05512 9.39094 6.6196C10.0064 6.18409 10.4717 5.56838 10.7226 4.85734H19.4294V2.42867H10.7226C10.4714 1.7181 10.0059 1.10293 9.39044 0.667953C8.77494 0.232977 8.03969 -0.000394611 7.28601 5.00881e-07ZM6.07168 3.64301C6.07168 3.32095 6.19962 3.01207 6.42735 2.78434C6.65508 2.55661 6.96395 2.42867 7.28601 2.42867C7.60808 2.42867 7.91695 2.55661 8.14468 2.78434C8.37241 3.01207 8.50035 3.32095 8.50035 3.64301C8.50035 3.96507 8.37241 4.27394 8.14468 4.50167C7.91695 4.7294 7.60808 4.85734 7.28601 4.85734C6.96395 4.85734 6.65508 4.7294 6.42735 4.50167C6.19962 4.27394 6.07168 3.96507 6.07168 3.64301ZM12.1434 9.71469C11.3897 9.71429 10.6544 9.94766 10.0389 10.3826C9.42344 10.8176 8.95801 11.4328 8.70679 12.1434H0V14.572H8.70679C8.95767 15.2831 9.42293 15.8988 10.0384 16.3343C10.6539 16.7698 11.3894 17.0037 12.1434 17.0037C12.8974 17.0037 13.6328 16.7698 14.2483 16.3343C14.8638 15.8988 15.329 15.2831 15.5799 14.572H19.4294V12.1434H15.5799C15.3287 11.4328 14.8633 10.8176 14.2478 10.3826C13.6323 9.94766 12.897 9.71429 12.1434 9.71469ZM10.929 13.3577C10.929 13.0356 11.057 12.7268 11.2847 12.499C11.5124 12.2713 11.8213 12.1434 12.1434 12.1434C12.4654 12.1434 12.7743 12.2713 13.002 12.499C13.2298 12.7268 13.3577 13.0356 13.3577 13.3577C13.3577 13.6798 13.2298 13.9886 13.002 14.2164C12.7743 14.4441 12.4654 14.572 12.1434 14.572C11.8213 14.572 11.5124 14.4441 11.2847 14.2164C11.057 13.9886 10.929 13.6798 10.929 13.3577Z" fill="black"/>
</svg>
