<svg width="17" height="18" viewBox="0 0 17 18" fill="none" xmlns="http://www.w3.org/2000/svg">
<path fill-rule="evenodd" clip-rule="evenodd" d="M4.6875 4.125V7.5H8.0625V4.125H4.6875ZM3.3431 2.7806C3.44273 2.68097 3.57785 2.625 3.71875 2.625H9.03125C9.17215 2.625 9.30727 2.68097 9.4069 2.7806C9.50653 2.88023 9.5625 3.01535 9.5625 3.15625V8.46875C9.5625 8.60965 9.50653 8.74477 9.4069 8.8444C9.30727 8.94403 9.17215 9 9.03125 9H3.71875C3.57785 9 3.44273 8.94403 3.3431 8.8444C3.24347 8.74477 3.1875 8.60965 3.1875 8.46875V3.15625C3.1875 3.01535 3.24347 2.88023 3.3431 2.7806Z" fill="#1D51A2"/>
<path d="M3.1875 0.5C2.62391 0.5 2.08341 0.723883 1.6849 1.1224C1.28638 1.52091 1.0625 2.06141 1.0625 2.625V16.4375H0.53125C0.390354 16.4375 0.255228 16.4935 0.1556 16.5931C0.0559708 16.6927 0 16.8279 0 16.9688C0 17.1096 0.0559708 17.2448 0.1556 17.3444C0.255228 17.444 0.390354 17.5 0.53125 17.5H12.2188C12.3596 17.5 12.4948 17.444 12.5944 17.3444C12.694 17.2448 12.75 17.1096 12.75 16.9688C12.75 16.8279 12.694 16.6927 12.5944 16.5931C12.4948 16.4935 12.3596 16.4375 12.2188 16.4375H11.6875V12.1875C11.9693 12.1875 12.2395 12.2994 12.4388 12.4987C12.6381 12.698 12.75 12.9682 12.75 13.25V13.7812C12.75 14.2039 12.9179 14.6093 13.2168 14.9082C13.5157 15.2071 13.9211 15.375 14.3438 15.375C14.7664 15.375 15.1718 15.2071 15.4707 14.9082C15.7696 14.6093 15.9375 14.2039 15.9375 13.7812V9H16.4688C16.6096 9 16.7448 8.94403 16.8444 8.8444C16.944 8.74477 17 8.60965 17 8.46875V5.09425C17 4.43975 17 3.57912 16.6876 2.88319C16.514 2.4817 16.219 2.14469 15.844 1.9195C15.4424 1.68079 14.9423 1.56179 14.3438 1.5625C14.2029 1.5625 14.0677 1.61847 13.9681 1.7181C13.8685 1.81773 13.8125 1.95285 13.8125 2.09375C13.8125 2.23465 13.8685 2.36977 13.9681 2.4694C14.0677 2.56903 14.2029 2.625 14.3438 2.625C14.807 2.625 15.1045 2.71637 15.3 2.83219C15.4878 2.9457 15.6344 3.11618 15.7186 3.31881C15.8748 3.66731 15.9205 4.11144 15.9322 4.61719H14.3438C14.2029 4.61719 14.0677 4.67316 13.9681 4.77279C13.8685 4.87242 13.8125 5.00754 13.8125 5.14844V8.46875C13.8125 8.60965 13.8685 8.74477 13.9681 8.8444C14.0677 8.94403 14.2029 9 14.3438 9H14.875V13.7812C14.875 13.9221 14.819 14.0573 14.7194 14.1569C14.6198 14.2565 14.4846 14.3125 14.3438 14.3125C14.2029 14.3125 14.0677 14.2565 13.9681 14.1569C13.8685 14.0573 13.8125 13.9221 13.8125 13.7812V13.25C13.8125 12.6864 13.5886 12.1459 13.1901 11.7474C12.7916 11.3489 12.2511 11.125 11.6875 11.125V2.625C11.6875 2.06141 11.4636 1.52091 11.0651 1.1224C10.6666 0.723883 10.1261 0.5 9.5625 0.5L3.1875 0.5ZM10.625 2.625V16.4375H2.125V2.625C2.125 2.34321 2.23694 2.07296 2.4362 1.8737C2.63546 1.67444 2.90571 1.5625 3.1875 1.5625H9.5625C9.84429 1.5625 10.1145 1.67444 10.3138 1.8737C10.5131 2.07296 10.625 2.34321 10.625 2.625Z" fill="#1D51A2"/>
</svg>
