<svg width="17" height="18" viewBox="0 0 17 18" fill="none" xmlns="http://www.w3.org/2000/svg">
<path d="M15.1111 0C15.6121 0 16.0925 0.210714 16.4468 0.585786C16.801 0.960859 17 1.46957 17 2V16C17 16.5304 16.801 17.0391 16.4468 17.4142C16.0925 17.7893 15.6121 18 15.1111 18H1.88889C1.38792 18 0.907478 17.7893 0.553243 17.4142C0.199007 17.0391 0 16.5304 0 16V2C0 1.46957 0.199007 0.960859 0.553243 0.585786C0.907478 0.210714 1.38792 0 1.88889 0H15.1111ZM14.6389 15.5V10.2C14.6389 9.33539 14.3145 8.5062 13.7371 7.89483C13.1597 7.28346 12.3766 6.94 11.56 6.94C10.7572 6.94 9.82222 7.46 9.36889 8.24V7.13H6.73389V15.5H9.36889V10.57C9.36889 9.8 9.95444 9.17 10.6817 9.17C11.0323 9.17 11.3687 9.3175 11.6166 9.58005C11.8646 9.8426 12.0039 10.1987 12.0039 10.57V15.5H14.6389ZM3.66444 5.56C4.08525 5.56 4.48883 5.383 4.78639 5.06794C5.08395 4.75288 5.25111 4.32556 5.25111 3.88C5.25111 2.95 4.54278 2.19 3.66444 2.19C3.24113 2.19 2.83515 2.36805 2.53582 2.68499C2.23649 3.00193 2.06833 3.43178 2.06833 3.88C2.06833 4.81 2.78611 5.56 3.66444 5.56ZM4.97722 15.5V7.13H2.36111V15.5H4.97722Z" fill="black"/>
</svg>
