<svg width="181" height="72" viewBox="0 0 181 72" fill="none" xmlns="http://www.w3.org/2000/svg">
<path d="M10.3561 38.6286V46.8603C10.3561 47.0574 10.516 47.2159 10.7104 47.2159H14.3859C14.5823 47.2159 14.7403 47.3765 14.7403 47.5716V52.6184C14.7403 52.8155 14.5803 52.9741 14.3859 52.9741H10.7104C10.514 52.9741 10.3561 53.1346 10.3561 53.3297V60.4171C10.3561 61.3236 10.4026 62.0553 10.4958 62.6183C10.5889 63.1793 10.7833 63.6102 11.079 63.907C11.3747 64.2037 11.8181 64.3988 12.4095 64.4923C12.9258 64.5736 13.588 64.6204 14.392 64.6305C14.5864 64.6326 14.7423 64.7931 14.7423 64.9862V70.2687C14.7423 70.4659 14.5823 70.6244 14.3879 70.6244H13.8108C11.9457 70.6244 10.3885 70.4537 9.14509 70.1102C7.90171 69.7667 6.88919 69.1976 6.1136 68.4009C5.33599 67.6041 4.78315 66.5594 4.45712 65.2647C4.13109 63.97 3.96706 62.3704 3.96706 60.4659V53.3318C3.96706 53.1346 3.80708 52.9761 3.61267 52.9761H0.354382C0.157953 52.9761 0 52.8155 0 52.6204V47.5737C0 47.3765 0.159978 47.218 0.354382 47.218H3.60862C3.80505 47.218 3.96301 47.0574 3.96301 46.8623V40.0615C3.96301 39.8989 4.07438 39.7546 4.23234 39.716L9.91258 38.2851C10.1374 38.2282 10.354 38.3989 10.354 38.6306L10.3561 38.6286Z" fill="#1D51A2"/>
<path d="M26.5912 71.096C24.9125 71.096 23.341 70.7749 21.879 70.1367C20.4169 69.4965 19.133 68.6306 18.0314 67.5371C16.9277 66.4456 16.063 65.157 15.4414 63.6753C14.8197 62.1936 14.5078 60.6083 14.5078 58.9233C14.5078 57.2384 14.8176 55.653 15.4414 54.1713C16.063 52.6896 16.9257 51.401 18.0314 50.3075C19.135 49.216 20.4169 48.3481 21.879 47.7079C23.341 47.0676 24.9105 46.7485 26.5912 46.7485C28.272 46.7485 29.8414 47.0697 31.3035 47.7079C32.7656 48.3481 34.0474 49.214 35.1511 50.3075C36.2547 51.401 37.1174 52.6875 37.7411 54.1713C38.3628 55.655 38.6747 57.2384 38.6747 58.9233C38.6747 60.6083 38.3628 62.1936 37.7411 63.6753C37.1194 65.1591 36.2547 66.4456 35.1511 67.5371C34.0474 68.6306 32.7636 69.4965 31.3035 70.1367C29.8414 70.7769 28.272 71.096 26.5912 71.096ZM26.5912 65.0087C27.3992 65.0087 28.1607 64.844 28.8775 64.5168C29.5924 64.1896 30.214 63.7526 30.7426 63.2058C31.2711 62.6591 31.6903 62.0209 32.0022 61.2851C32.312 60.5514 32.4679 59.7627 32.4679 58.9213C32.4679 58.0798 32.312 57.2912 32.0022 56.5575C31.6903 55.8237 31.2711 55.1835 30.7426 54.6388C30.214 54.092 29.5924 53.655 28.8775 53.3278C28.1627 53.0006 27.3992 52.8359 26.5912 52.8359C25.7832 52.8359 24.9813 53.0006 24.2827 53.3278C23.582 53.655 22.9684 54.094 22.4399 54.6388C21.9114 55.1855 21.4983 55.8258 21.2046 56.5575C20.909 57.2912 20.7611 58.0798 20.7611 58.9213C20.7611 59.7627 20.909 60.5534 21.2046 61.2851C21.5003 62.0188 21.9114 62.6591 22.4399 63.2058C22.9684 63.7526 23.582 64.1896 24.2827 64.5168C24.9834 64.844 25.7529 65.0087 26.5912 65.0087Z" fill="#1D51A2"/>
<path d="M50.1483 71.0963C48.9049 71.0963 47.6211 70.8463 46.2987 70.3463C44.9764 69.8484 43.7715 69.0984 42.684 68.0984C41.5945 67.1004 40.6934 65.8362 39.9785 64.3057C39.2637 62.7773 38.9053 60.9805 38.9053 58.9216C38.9053 56.8626 39.2475 55.0659 39.932 53.5374C40.6164 52.009 41.5014 50.7366 42.5909 49.7224C43.6783 48.7082 44.8994 47.9602 46.2521 47.4744C47.6049 46.9907 48.9353 46.7488 50.2415 46.7488C51.7643 46.7488 53.1109 47.007 54.2774 47.5212C55.1704 47.9155 55.948 48.3972 56.6122 48.9643C56.8411 49.1594 57.1914 48.9907 57.1914 48.6899V47.574C57.1914 47.3769 57.3514 47.2183 57.5458 47.2183H63.226C63.4225 47.2183 63.5804 47.3789 63.5804 47.574V70.2711C63.5804 70.4683 63.4204 70.6268 63.226 70.6268H57.5458C57.3494 70.6268 57.1914 70.4663 57.1914 70.2711V68.889C57.1914 68.5801 56.8228 68.4134 56.5981 68.6248C55.9298 69.2549 55.14 69.7894 54.2288 70.2285C53.032 70.8057 51.6711 71.0943 50.1463 71.0943L50.1483 71.0963ZM42.5382 36.9155H47.532C47.6494 36.9155 47.7608 36.9745 47.8276 37.0741L52.6695 44.32C52.8274 44.5578 52.6594 44.8749 52.3738 44.8749H48.909C48.8077 44.8749 48.7105 44.8301 48.6417 44.7549L42.2709 37.509C42.0684 37.2793 42.2304 36.9176 42.5382 36.9176V36.9155ZM51.4079 65.198C52.2787 65.198 53.0785 65.0333 53.8096 64.7061C54.5406 64.3789 55.1704 63.9256 55.6989 63.3484C56.2275 62.7712 56.6386 62.1004 56.9342 61.3342C57.2299 60.5699 57.3777 59.7508 57.3777 58.8769C57.3777 58.0029 57.2299 57.1838 56.9342 56.4195C56.6386 55.6553 56.2255 54.9907 55.6989 54.4297C55.1704 53.8687 54.5406 53.4236 53.8096 53.0943C53.0785 52.7671 52.2766 52.6025 51.4079 52.6025C50.5391 52.6025 49.721 52.759 48.9596 53.07C48.1962 53.383 47.536 53.82 46.9771 54.3809C46.4182 54.9419 45.9747 55.6065 45.6466 56.3708C45.3206 57.137 45.1566 57.9704 45.1566 58.8748C45.1566 59.7793 45.3206 60.6147 45.6466 61.3789C45.9727 62.1451 46.4162 62.8077 46.9771 63.3687C47.536 63.9297 48.1982 64.3748 48.9596 64.7041C49.721 65.0313 50.5371 65.1959 51.4079 65.1959V65.198Z" fill="#1D51A2"/>
<path d="M65.5701 47.2182H71.2038C71.4002 47.2182 71.5582 47.3788 71.5582 47.5739V48.891C71.5582 49.2101 71.9429 49.3666 72.1657 49.1389C72.7894 48.4987 73.5123 47.9763 74.3325 47.5698C75.4361 47.0231 76.6572 46.7507 77.9938 46.7507C80.762 46.7507 82.9227 47.5942 84.4779 49.2792C86.0332 50.9641 86.8108 53.3219 86.8108 56.3503V70.2751C86.8108 70.4722 86.6508 70.6308 86.4564 70.6308H80.683C80.4866 70.6308 80.3286 70.4702 80.3286 70.2751V57.1938C80.3286 55.6023 79.9702 54.3767 79.2554 53.519C78.5405 52.6613 77.4672 52.2304 76.0376 52.2304C74.8246 52.2304 73.7817 52.6755 72.9129 53.5658C72.0422 54.456 71.6068 55.8828 71.6068 57.8503V70.2771C71.6068 70.4743 71.4468 70.6328 71.2524 70.6328H65.5722C65.3757 70.6328 65.2178 70.4722 65.2178 70.2771V47.58C65.2178 47.3828 65.3778 47.2243 65.5722 47.2243L65.5701 47.2182Z" fill="#1D51A2"/>
<path d="M109.113 71.0964C107.402 71.0964 105.809 70.7996 104.332 70.2061C102.854 69.6126 101.58 68.7773 100.507 67.7021C99.4337 66.6248 98.5933 65.3382 97.9879 63.8383C97.3824 62.3403 97.0786 60.7021 97.0786 58.9216C97.0786 57.2366 97.3884 55.6513 98.0122 54.1696C98.6338 52.6879 99.4965 51.3993 100.602 50.3058C101.706 49.2143 102.988 48.3464 104.45 47.7062C105.912 47.0659 107.481 46.7468 109.162 46.7468C110.843 46.7468 112.295 47.0131 113.71 47.5436C115.126 48.0741 116.369 48.8078 117.442 49.7448C118.516 50.6818 119.378 51.8058 120.032 53.1167C120.63 54.3179 121.007 55.6228 121.162 57.0334C121.185 57.2427 121.019 57.4257 120.808 57.4257H115.099C114.931 57.4257 114.79 57.3057 114.753 57.1391C114.472 55.8688 113.862 54.8484 112.921 54.0781C111.91 53.2509 110.659 52.8383 109.166 52.8383C108.326 52.8383 107.54 52.9948 106.811 53.3058C106.08 53.6188 105.45 54.0558 104.922 54.6167C104.393 55.1777 103.972 55.8261 103.662 56.5598C103.35 57.2936 103.196 58.0822 103.196 58.9236C103.196 60.7651 103.739 62.2407 104.828 63.3484C105.916 64.4561 107.378 65.011 109.213 65.011C110.705 65.011 111.948 64.5822 112.945 63.7224C113.872 62.9236 114.474 61.887 114.753 60.6147C114.79 60.45 114.931 60.3281 115.099 60.3281H120.808C121.019 60.3281 121.185 60.511 121.162 60.7204C121.007 62.1594 120.614 63.4805 119.986 64.6838C119.301 65.9948 118.423 67.1269 117.349 68.0781C116.276 69.0313 115.033 69.7712 113.617 70.3016C112.202 70.8321 110.701 71.0984 109.115 71.0984L109.113 71.0964Z" fill="#1D51A2"/>
<path d="M132.717 71.096C131.473 71.096 130.189 70.846 128.867 70.346C127.545 69.8481 126.34 69.0981 125.252 68.0981C124.163 67.1001 123.262 65.8359 122.547 64.3054C121.832 62.777 121.474 60.9802 121.474 58.9213C121.474 56.8623 121.816 55.0656 122.5 53.5371C123.185 52.0087 124.07 50.7363 125.159 49.7221C126.247 48.7079 127.468 47.9599 128.82 47.4741C130.173 46.9904 131.504 46.7485 132.81 46.7485C134.333 46.7485 135.679 47.0067 136.846 47.5209C137.739 47.9152 138.516 48.3969 139.181 48.964C139.409 49.1591 139.76 48.9904 139.76 48.6896V47.5737C139.76 47.3766 139.92 47.218 140.114 47.218H145.794C145.991 47.218 146.149 47.3786 146.149 47.5737V70.2708C146.149 70.468 145.989 70.6265 145.794 70.6265H140.114C139.918 70.6265 139.76 70.466 139.76 70.2708V68.8887C139.76 68.5798 139.391 68.4131 139.166 68.6245C138.498 69.2546 137.708 69.7891 136.797 70.2282C135.6 70.8054 134.24 71.094 132.715 71.094L132.717 71.096ZM133.976 65.1977C134.847 65.1977 135.647 65.033 136.378 64.7058C137.109 64.3786 137.739 63.9253 138.267 63.3481C138.796 62.7709 139.207 62.1001 139.503 61.3339C139.798 60.5696 139.946 59.7505 139.946 58.8766C139.946 58.0026 139.798 57.1835 139.503 56.4192C139.207 55.655 138.794 54.9904 138.267 54.4294C137.739 53.8684 137.109 53.4233 136.378 53.094C135.647 52.7668 134.845 52.6022 133.976 52.6022C133.107 52.6022 132.289 52.7587 131.528 53.0697C130.765 53.3827 130.104 53.8197 129.545 54.3806C128.987 54.9416 128.543 55.6062 128.215 56.3705C127.889 57.1367 127.725 57.9701 127.725 58.8745C127.725 59.779 127.889 60.6144 128.215 61.3786C128.541 62.1448 128.985 62.8074 129.545 63.3684C130.104 63.9294 130.767 64.3745 131.528 64.7038C132.289 65.031 133.105 65.1957 133.976 65.1957V65.1977Z" fill="#1D51A2"/>
<path d="M148.14 47.2184H153.774C153.97 47.2184 154.128 47.379 154.128 47.5741V49.759C154.128 50.1086 154.572 50.2448 154.776 49.9602C155.278 49.257 155.886 48.6777 156.601 48.2245C157.658 47.5537 158.98 47.2184 160.566 47.2184H162.777C162.973 47.2184 163.131 47.379 163.131 47.5741V53.0883C163.131 53.2854 162.971 53.444 162.777 53.444H159.073C157.362 53.444 156.119 53.9196 155.341 54.8728C154.563 55.8261 154.175 57.3932 154.175 59.5781V70.2712C154.175 70.4683 154.015 70.6269 153.82 70.6269H148.14C147.944 70.6269 147.786 70.4663 147.786 70.2712V47.5741C147.786 47.3769 147.946 47.2184 148.14 47.2184Z" fill="#1D51A2"/>
<path d="M169.496 63.3118C169.567 64.0639 169.84 64.6065 170.318 64.9399C170.877 65.3301 171.548 65.5252 172.325 65.5252C173.226 65.5252 173.872 65.3464 174.261 64.9866C174.65 64.6289 174.844 64.1208 174.844 63.4643C174.844 63.0903 174.68 62.7935 174.354 62.574C174.028 62.3565 173.599 62.1533 173.07 61.9663C172.542 61.7793 171.928 61.6004 171.228 61.4277C170.527 61.257 169.82 61.0456 169.105 60.7956C168.389 60.5456 167.69 60.2488 167.005 59.9053C166.321 59.5618 165.707 59.1248 165.163 58.5944C164.618 58.0639 164.183 57.4094 163.856 56.6269C163.53 55.8464 163.366 54.9257 163.366 53.8647C163.366 52.8037 163.561 51.8911 163.95 51.0314C164.338 50.1736 164.897 49.4236 165.628 48.7834C166.359 48.1432 167.252 47.6452 168.312 47.2854C169.369 46.9277 170.565 46.7468 171.904 46.7468C173.243 46.7468 174.423 46.9115 175.543 47.2387C176.663 47.5659 177.619 48.0659 178.412 48.7367C179.206 49.4074 179.828 50.2428 180.278 51.2407C180.687 52.1472 180.909 53.1919 180.948 54.3789C180.954 54.5822 180.794 54.7509 180.591 54.7509H175.104C174.907 54.7509 174.749 54.5903 174.749 54.3952V54.3464C174.749 53.3484 174.508 52.9724 174.026 52.5984C173.544 52.2245 172.898 52.0375 172.09 52.0375C171.282 52.0375 170.691 52.2245 170.318 52.5984C169.946 52.9724 169.759 53.4114 169.759 53.9094C169.759 54.2529 169.923 54.5334 170.25 54.7529C170.576 54.9724 171.003 55.1675 171.531 55.3383C172.06 55.511 172.659 55.6818 173.328 55.8525C173.996 56.0253 174.688 56.2346 175.403 56.4846C176.118 56.7346 176.811 57.0314 177.479 57.3748C178.147 57.7183 178.739 58.1635 179.251 58.7102C179.763 59.257 180.184 59.9033 180.51 60.6533C180.836 61.4033 181 62.3078 181 63.3687C181 64.4297 180.814 65.3748 180.442 66.2956C180.069 67.2163 179.524 68.0354 178.809 68.7529C178.095 69.4704 177.191 70.0415 176.104 70.4622C175.014 70.883 173.755 71.0943 172.325 71.0943C166.272 71.0943 163.178 68.4216 163.046 63.0761C163.042 62.8769 163.204 62.7143 163.403 62.7143H169.134C169.326 62.7143 169.484 62.8667 169.49 63.0598L169.498 63.3098L169.496 63.3118Z" fill="#1D51A2"/>
<path d="M118.921 20.2997V11.7916C118.921 11.629 118.809 11.4847 118.652 11.4461L74.1917 0.248952C74.135 0.234724 74.0763 0.234724 74.0196 0.248952L29.5598 11.4461C29.4019 11.4867 29.2905 11.629 29.2905 11.7916V20.2387C29.2905 20.4013 29.1791 20.5457 29.0212 20.5843L4.23466 26.8282C4.07671 26.8688 3.96533 27.0111 3.96533 27.1737V36.1412C3.96533 36.3729 4.18201 36.5436 4.40679 36.4867L29.3877 30.194C29.5457 30.1534 29.657 30.0111 29.657 29.8485V21.4013C29.657 21.2387 29.7684 21.0944 29.9264 21.0558L74.0196 9.95015C74.0763 9.93592 74.135 9.93592 74.1917 9.95015L118.048 20.9948C118.206 21.0355 118.317 21.1778 118.317 21.3404V29.8485C118.317 30.0111 118.429 30.1554 118.587 30.194L162.692 41.3017C162.917 41.3586 163.134 41.1879 163.134 40.9562V31.9887C163.134 31.8261 163.022 31.6818 162.864 31.6432L119.19 20.6432C119.032 20.6026 118.921 20.4603 118.921 20.2977V20.2997Z" fill="#F8BB15"/>
</svg>
