<svg width="16" height="20" viewBox="0 0 16 20" fill="none" xmlns="http://www.w3.org/2000/svg">
<path d="M6.66291 2.5H4.24003C3.68322 2.5 3.13187 2.61316 2.61744 2.83303C2.10302 3.05289 1.6356 3.37515 1.24188 3.78141C0.848153 4.18766 0.535835 4.66996 0.322753 5.20076C0.109672 5.73156 0 6.30047 0 6.875C0 7.44953 0.109672 8.01844 0.322753 8.54924C0.535835 9.08004 0.848153 9.56234 1.24188 9.96859C1.6356 10.3748 2.10302 10.6971 2.61744 10.917C3.13187 11.1368 3.68322 11.25 4.24003 11.25H6.66291V15H1.21144V17.5H6.66291V20H9.08578V17.5H11.5087C12.6332 17.5 13.7117 17.0391 14.5068 16.2186C15.302 15.3981 15.7487 14.2853 15.7487 13.125C15.7487 11.9647 15.302 10.8519 14.5068 10.0314C13.7117 9.21094 12.6332 8.75 11.5087 8.75H9.08578V5H14.5373V2.5H9.08578V0H6.66291V2.5ZM9.08578 11.25H11.5087C11.9906 11.25 12.4528 11.4475 12.7936 11.7992C13.1344 12.1508 13.3258 12.6277 13.3258 13.125C13.3258 13.6223 13.1344 14.0992 12.7936 14.4508C12.4528 14.8025 11.9906 15 11.5087 15H9.08578V11.25ZM6.66291 8.75H4.24003C4.0014 8.75 3.7651 8.7015 3.54464 8.60727C3.32417 8.51305 3.12385 8.37494 2.95511 8.20083C2.78637 8.02672 2.65252 7.82002 2.5612 7.59253C2.46988 7.36505 2.42288 7.12123 2.42288 6.875C2.42288 6.62877 2.46988 6.38495 2.5612 6.15747C2.65252 5.92998 2.78637 5.72328 2.95511 5.54917C3.12385 5.37506 3.32417 5.23695 3.54464 5.14273C3.7651 5.0485 4.0014 5 4.24003 5H6.66291V8.75Z" fill="#1D51A2"/>
</svg>
