<svg width="60" height="40" viewBox="0 0 60 40" fill="none" xmlns="http://www.w3.org/2000/svg">
<path d="M26.2677 25.7359C26.0963 25.5667 26 25.3373 26 25.098C26 24.8588 26.0963 24.6294 26.2677 24.4602L30.7932 19.9946L26.2677 15.5289C26.1011 15.3587 26.009 15.1309 26.0111 14.8943C26.0132 14.6578 26.1093 14.4315 26.2788 14.2642C26.4483 14.097 26.6776 14.0021 26.9173 14C27.1571 13.998 27.388 14.0889 27.5604 14.2532L32.7323 19.3567C32.9037 19.5259 33 19.7553 33 19.9946C33 20.2338 32.9037 20.4632 32.7323 20.6324L27.5604 25.7359C27.389 25.905 27.1565 26 26.9141 26C26.6716 26 26.4391 25.905 26.2677 25.7359Z" fill="#6D6E6E"/>
<rect opacity="0.3" x="59.5" y="39.5" width="59" height="39" rx="19.5" transform="rotate(-180 59.5 39.5)" stroke="#6D6E6E"/>
</svg>
