<svg width="60" height="40" viewBox="0 0 60 40" fill="none" xmlns="http://www.w3.org/2000/svg">
<rect opacity="0.8" x="60" y="40" width="60" height="40" rx="20" transform="rotate(-180 60 40)" fill="white"/>
<path d="M28.2677 25.7359C28.0963 25.5667 28 25.3373 28 25.098C28 24.8588 28.0963 24.6294 28.2677 24.4602L32.7932 19.9946L28.2677 15.5289C28.1011 15.3587 28.009 15.1309 28.0111 14.8943C28.0132 14.6578 28.1093 14.4315 28.2788 14.2642C28.4483 14.097 28.6776 14.0021 28.9173 14C29.1571 13.998 29.388 14.0889 29.5604 14.2532L34.7323 19.3567C34.9037 19.5259 35 19.7553 35 19.9946C35 20.2338 34.9037 20.4632 34.7323 20.6324L29.5604 25.7359C29.389 25.905 29.1565 26 28.9141 26C28.6716 26 28.4391 25.905 28.2677 25.7359Z" fill="#1D51A2"/>
</svg>
