<svg width="18" height="18" viewBox="0 0 18 18" fill="none" xmlns="http://www.w3.org/2000/svg">
<path fill-rule="evenodd" clip-rule="evenodd" d="M8.2024 9.79907C8.40719 10.0039 8.68742 10.1279 8.9973 10.1279C9.30719 10.1279 9.59012 10.0012 9.79222 9.79907C9.99701 9.59425 10.121 9.31397 10.121 9.00404C10.121 8.69412 9.99431 8.41114 9.79222 8.20901C9.58743 8.00419 9.30719 7.88022 8.9973 7.88022C8.68742 7.88022 8.40449 8.00689 8.2024 8.20901C7.9976 8.41383 7.87365 8.69412 7.87365 9.00404C7.87365 9.31397 8.0003 9.59695 8.2024 9.79907ZM2.63533 2.63572C4.26557 1.00524 6.51557 0 9 0C11.4844 0 13.7344 1.00794 15.3647 2.63572C16.9949 4.26621 18 6.51654 18 9.00135C18 9.42986 17.6524 9.77482 17.2266 9.77482C16.8009 9.77482 16.4533 9.42716 16.4533 9.00135C16.4533 6.94236 15.618 5.07741 14.2707 3.7299C12.9234 2.3797 11.0587 1.54694 9 1.54694C6.94132 1.54694 5.07665 2.38239 3.72934 3.7299C2.37934 5.07741 1.54671 6.94236 1.54671 9.00135C1.54671 9.42986 1.1991 9.77482 0.773353 9.77482C0.347605 9.77482 0 9.42716 0 9.00135C0.00269461 6.51654 1.01048 4.26621 2.63802 2.63572H2.63533ZM7.11108 7.11214C7.59341 6.62973 8.26168 6.33059 9 6.33059C9.21018 6.33059 9.41766 6.35484 9.61437 6.40066L10.3204 5.17443C10.5332 4.80521 11.0021 4.67854 11.3713 4.89145C11.7404 5.10436 11.8671 5.57329 11.6542 5.94251L10.9455 7.17143C11.3955 7.65115 11.6731 8.29525 11.6731 9.00404C11.6731 9.71283 11.374 10.4108 10.8916 10.8932C10.4093 11.3757 9.74102 11.6748 9.00269 11.6748C8.26437 11.6748 7.59611 11.3757 7.11377 10.8932C6.63144 10.4108 6.33233 9.74248 6.33233 9.00404C6.33233 8.26561 6.63144 7.59724 7.11377 7.11484L7.11108 7.11214ZM15.0305 13.3888C15.2811 13.0466 15.7608 12.9684 16.1057 13.219C16.4479 13.4697 16.526 13.9494 16.2754 14.2944C15.4401 15.4397 14.3434 16.3803 13.0769 17.0244C11.8509 17.647 10.4659 18 9 18C7.53413 18 6.14641 17.6496 4.92305 17.0244C3.65659 16.3803 2.55988 15.4397 1.72455 14.2944C1.47395 13.9521 1.5494 13.4697 1.89431 13.219C2.23653 12.9684 2.71886 13.0466 2.96946 13.3888C3.65659 14.3321 4.56737 15.1109 5.62365 15.6499C6.63683 16.1647 7.78473 16.4558 9 16.4558C10.2153 16.4558 11.3632 16.1647 12.3763 15.6499C13.4326 15.1109 14.3407 14.3348 15.0305 13.3888Z" fill="black"/>
</svg>
