<svg width="19" height="19" viewBox="0 0 19 19" fill="none" xmlns="http://www.w3.org/2000/svg">
<path d="M16.8235 8.999H18.8235C18.8235 3.869 14.9505 0 9.81348 0V2C13.8755 2 16.8235 4.943 16.8235 8.999Z" fill="#F8BB15"/>
<path d="M10.0003 5.99999C12.1033 5.99999 13.0003 6.89699 13.0003 8.99999H15.0003C15.0003 5.77499 13.2253 3.99999 10.0003 3.99999V5.99999ZM13.4223 11.443C13.2302 11.2681 12.9777 11.1748 12.7181 11.1828C12.4585 11.1909 12.2122 11.2996 12.0313 11.486L9.63828 13.947C9.06228 13.837 7.90428 13.476 6.71228 12.287C5.52028 11.094 5.15928 9.93299 5.05228 9.361L7.51128 6.96699C7.69769 6.78612 7.80642 6.53982 7.81444 6.2802C7.82247 6.02059 7.72917 5.76804 7.55428 5.57599L3.85928 1.51299C3.68432 1.32035 3.44116 1.2035 3.18143 1.18725C2.92171 1.17101 2.66588 1.25665 2.46828 1.42599L0.298282 3.28699C0.125393 3.46051 0.0222015 3.69145 0.00828196 3.93599C-0.00671804 4.18599 -0.292718 10.108 4.29928 14.702C8.30528 18.707 13.3233 19 14.7053 19C14.9073 19 15.0313 18.994 15.0643 18.992C15.3086 18.9776 15.5392 18.874 15.7123 18.701L17.5723 16.53C17.7417 16.3325 17.8276 16.0768 17.8115 15.817C17.7954 15.5573 17.6788 15.3141 17.4863 15.139L13.4223 11.443Z" fill="#F8BB15"/>
</svg>
