<svg width="25" height="26" viewBox="0 0 25 26" fill="none" xmlns="http://www.w3.org/2000/svg">
<path d="M22.2103 12.0073H24.8182C24.8182 5.31782 19.7679 0.272705 13.0693 0.272705V2.88068C18.3661 2.88068 22.2103 6.7183 22.2103 12.0073Z" fill="white"/>
<path d="M13.3132 8.09665C16.0555 8.09665 17.2251 9.26632 17.2251 12.0086H19.8331C19.8331 7.80325 17.5185 5.48868 13.3132 5.48868V8.09665ZM17.7754 15.1942C17.525 14.9662 17.1957 14.8445 16.8571 14.855C16.5186 14.8655 16.1974 15.0072 15.9616 15.2503L12.8411 18.4594C12.09 18.316 10.58 17.8452 9.02567 16.2948C7.47132 14.7391 7.00058 13.2252 6.86105 12.4793L10.0675 9.3576C10.3106 9.12175 10.4524 8.80057 10.4629 8.46203C10.4733 8.1235 10.3517 7.79418 10.1236 7.54376L5.3054 2.24567C5.07725 1.99446 4.76017 1.84209 4.42149 1.8209C4.08281 1.79972 3.74922 1.9114 3.49155 2.13222L0.661905 4.55893C0.43646 4.7852 0.3019 5.08633 0.283749 5.40522C0.264189 5.73122 -0.108751 13.4534 5.87915 19.4439C11.1029 24.6664 17.6463 25.0485 19.4484 25.0485C19.7118 25.0485 19.8735 25.0406 19.9165 25.038C20.2352 25.0192 20.5358 24.8842 20.7615 24.6586L23.1869 21.8276C23.4079 21.5701 23.5198 21.2366 23.4989 20.8979C23.4779 20.5593 23.3258 20.2421 23.0748 20.0138L17.7754 15.1942Z" fill="white"/>
</svg>
