<svg width="60" height="40" viewBox="0 0 60 40" fill="none" xmlns="http://www.w3.org/2000/svg">
<path d="M33.7323 14.2641C33.9037 14.4333 34 14.6627 34 14.902C34 15.1412 33.9037 15.3706 33.7323 15.5398L29.2068 20.0054L33.7323 24.4711C33.8989 24.6413 33.991 24.8691 33.9889 25.1057C33.9868 25.3422 33.8907 25.5685 33.7212 25.7358C33.5517 25.903 33.3224 25.9979 33.0827 26C32.8429 26.002 32.612 25.9111 32.4396 25.7468L27.2677 20.6433C27.0963 20.4741 27 20.2447 27 20.0054C27 19.7662 27.0963 19.5368 27.2677 19.3676L32.4396 14.2641C32.611 14.095 32.8435 14 33.0859 14C33.3284 14 33.5609 14.095 33.7323 14.2641Z" fill="#6D6E6E"/>
<rect opacity="0.3" x="59.5" y="39.5" width="59" height="39" rx="19.5" transform="rotate(-180 59.5 39.5)" stroke="#6D6E6E"/>
</svg>
