<svg width="60" height="40" viewBox="0 0 60 40" fill="none" xmlns="http://www.w3.org/2000/svg">
<rect opacity="0.8" width="60" height="40" rx="20" fill="white"/>
<path d="M31.7323 14.2641C31.9037 14.4333 32 14.6627 32 14.902C32 15.1412 31.9037 15.3706 31.7323 15.5398L27.2068 20.0054L31.7323 24.4711C31.8989 24.6413 31.991 24.8691 31.9889 25.1057C31.9868 25.3422 31.8907 25.5685 31.7212 25.7358C31.5517 25.903 31.3224 25.9979 31.0827 26C30.8429 26.002 30.612 25.9111 30.4396 25.7468L25.2677 20.6433C25.0963 20.4741 25 20.2447 25 20.0054C25 19.7662 25.0963 19.5368 25.2677 19.3676L30.4396 14.2641C30.611 14.095 30.8435 14 31.0859 14C31.3284 14 31.5609 14.095 31.7323 14.2641Z" fill="#1D51A2"/>
</svg>
