<svg width="20" height="20" viewBox="0 0 20 20" fill="none" xmlns="http://www.w3.org/2000/svg">
<path fill-rule="evenodd" clip-rule="evenodd" d="M8.31874 3.95973e-08C7.00049 0.000171468 5.70116 0.313569 4.5278 0.914369C3.35444 1.51517 2.34065 2.38617 1.56996 3.4556C0.799271 4.52504 0.29375 5.76229 0.0950531 7.0654C-0.103644 8.36852 0.0101708 9.70019 0.427118 10.9507C0.844065 12.2012 1.55221 13.3347 2.4932 14.2579C3.43419 15.181 4.58108 15.8674 5.83938 16.2604C7.09768 16.6534 8.43135 16.7418 9.73051 16.5183C11.0297 16.2948 12.2571 15.7658 13.3117 14.9749C13.3745 15.1588 13.4783 15.3308 13.6255 15.4768L17.78 19.6311C18.0268 19.8703 18.3579 20.0028 18.7016 20C19.0454 19.9971 19.3742 19.8592 19.6171 19.6161C19.86 19.3729 19.9976 19.0439 20 18.7002C20.0024 18.3564 19.8695 18.0256 19.63 17.779L15.4755 13.6247C15.3348 13.4834 15.1634 13.3764 14.9746 13.3121C15.902 12.0761 16.4668 10.6062 16.6057 9.0673C16.7446 7.52837 16.4522 5.98116 15.7611 4.59907C15.0701 3.21699 14.0078 2.05466 12.6933 1.24235C11.3788 0.430037 9.86401 -0.000150693 8.31874 3.95973e-08ZM2.09781 8.31936C2.09781 7.50246 2.25872 6.69356 2.57135 5.93885C2.88398 5.18413 3.34221 4.49838 3.91988 3.92074C4.49754 3.34311 5.18333 2.8849 5.93809 2.57229C6.69285 2.25967 7.5018 2.09877 8.31874 2.09877C9.13568 2.09877 9.94463 2.25967 10.6994 2.57229C11.4541 2.8849 12.1399 3.34311 12.7176 3.92074C13.2953 4.49838 13.7535 5.18413 14.0661 5.93885C14.3788 6.69356 14.5397 7.50246 14.5397 8.31936C14.5397 9.96917 13.8843 11.5514 12.7176 12.718C11.551 13.8846 9.96863 14.54 8.31874 14.54C6.66885 14.54 5.08653 13.8846 3.91988 12.718C2.75323 11.5514 2.09781 9.96917 2.09781 8.31936Z" fill="white"/>
</svg>
