<?xml version="1.0" encoding="utf-8"?>
<!-- Generator: Adobe Illustrator 25.2.1, SVG Export Plug-In . SVG Version: 6.00 Build 0)  -->
<svg version="1.1" id="Layer_1" xmlns="http://www.w3.org/2000/svg" xmlns:xlink="http://www.w3.org/1999/xlink" x="0px" y="0px"
	 viewBox="0 0 500 500" style="enable-background:new 0 0 500 500;" xml:space="preserve">
<style type="text/css">
	.st0{fill:#FC9C86;}
	.st1{fill:#FCAC9A;}
	.st2{fill:#FAB0A9;}
	.st3{fill:#FEA688;}
	.st4{fill:#F5412E;}
	.st5{fill:#FE6433;}
	.st6{fill:#FB5831;}
	.st7{fill:#F74A2F;}
	.st8{fill:#F84B2F;}
	.st9{fill:#FB785D;}
	.st10{fill:#FEFEFE;}
	.st11{fill:#F73719;}
	.st12{fill:#FC4E1D;}
	.st13{fill:#FA5530;}
	.st14{fill:#FA5630;}
	.st15{fill:#FA431B;}
</style>
<path class="st0" d="M66.1,499.9c-1-0.6-2-1.3-3.1-1.9c1.3-1.4,3-1.3,4.6-1.2c41.8,1,83.6,0.6,125.4,0.6
	c40.6-0.1,81.2-0.2,121.8,0.1c8,0.1,16,0.1,24-0.1c25.4-0.2,50.9-0.1,76.3,0c5.1,0,10.3,0.7,15.4-0.5c2.3-0.3,4.6-0.8,6.5,1.1
	c-1,0.7-2,1.3-3,2C311.3,499.9,188.7,499.9,66.1,499.9z"/>
<path class="st1" d="M64,2c0.7-0.7,1.4-1.3,2-2c122.3,0,244.6,0,366.9,0c0.8,1.2,3,0.9,3.1,2.9c-0.6,0.8-1.4,0.8-2.3,0.7
	c-1.2-0.2-2.3-0.6-3.5-1c-2.3-0.3-4.7-0.2-7-0.2c-115.1,0-230.1,0-345.2,0c-2.8,0-5.7-0.3-8.4,0.6C67.6,3.4,65.7,3.6,64,2z"/>
<path class="st2" d="M499.9,431.9c-0.6,1.3-1.3,2.7-1.9,4c-1.5-1.4-1.5-3.3-1.3-5.1c0.9-6.3,0.6-12.6,0.6-19
	c0-109.6,0-219.2,0-328.8c0-4.5,0.1-9-0.5-13.5c-0.3-2-0.5-4,1.2-5.6c0.7,1.3,1.3,2.7,2,4C499.9,189.3,499.9,310.6,499.9,431.9z"/>
<path class="st3" d="M1,433c-0.3,0-0.6,0-1,0c0-122,0-243.9,0-365.9C0.4,67,0.7,67,1,67c2.2,2.3,1.7,5.3,1.7,8.1
	c0.1,27.8,0,55.6,0,83.5c0,88.3,0,176.6,0,264.9C2.7,426.6,3.5,430.1,1,433z"/>
<path class="st4" d="M498,64c1.8,56.4,0.5,112.8,0.7,169.2c0.2,63.3,0.1,126.5,0,189.8c0,4.3-0.5,8.6-0.7,12.9
	c-6.1,32.5-25.3,52.9-57.1,61.6c-1.3,0.3-2.6,0.3-3.9,0.4c-2,0-3.9,0-5.9,0c-5.8,0.4-11.6,0.1-17.2-1.2c-5.2-1.2-6.3-2.4-6.4-7.9
	c-0.2-8.8,0-17.6-0.1-26.4c0-8.8,0-17.6,0-26.4c0-3.9-0.5-7.9,1.6-11.6c0-0.7-1-0.2-0.3-0.2c0.3,0,0.3,0.2,0.2,0.5
	c-0.1,0.1,0,0.3-0.1,0.5c-9,12.3-19.9,21.4-36.2,21.3c-26.3-0.1-52.6,0.1-78.8-0.1c-3,0-6-0.1-9,0.1c-9.2,0.1-18.4,0-27.6,0
	c-2,0-4,0-5.8-0.8c-1-0.9-2.3-1.6-0.9-3.2c2.5-1.4,5.2-0.9,7.8-0.9c37.9,0,75.8,0,113.7,0c2.5,0,5,0.2,7.4-0.7
	c17.7-5,27.8-17.7,28.1-36.1c0.4-24.8,2.4-49.5,3.2-74.3c0.7-20.3,1.8-40.5,3-60.8c1.3-23.7,2.2-47.5,3.7-71.2
	c0.9-13.8,0.9-27.6,2.1-41.3c0.3-3.7-1.5-6.7-2.6-10c-0.5-2.5-2.5-1.5-3.9-1.6c-3.2-0.2-6.3,0-9.5-0.1c-1.7-0.1-3.8,0.3-4.6-2
	c0.2-0.7,0.5-1.4,1.1-1.6c5.9-1.8,5.6-6.5,5.6-11.2c-0.1-38.1,0-76.2,0-114.3c0-2.3-0.1-4.7,0.3-7c0.4-2.5,1.7-4.7,4.2-5.1
	c8-1.2,16-3.1,24.1-1.1c0.7,0,1.4-0.1,2.1-0.1c19.1,1.1,33.5,10.9,45.5,24.7C490.6,38.1,495.8,50.4,498,64z"/>
<path class="st5" d="M1,433c0-4,0.1-8,0.1-12c0-114,0-228,0-342.1c0-4,0-8-0.1-12c3-23.4,14.5-41.6,34.1-54.5
	C43.9,6.8,53.6,3.3,64,2c1.7,0,3.3,0,5,0c0.6-0.3,1.2-0.4,1.9-0.4c31.9,0.1,63.9-0.2,95.8,0.1c0.3,3.8-2.7,3.6-4.9,3.7
	c-4.5,0.3-8.9,1.1-13.4,1.2c-4.3,0.1-5.8,2.1-5.8,6.2c0.1,8.5,0,17,0,25.5c0,31.3,0,62.6,0,93.9c0,9.6-1.4,11-10.9,11.2
	c-2.2,0-4.3,0.1-6.2,1.3c-6.2,1.4-12.6,0.5-18.9,0.6c-6.5,0.2-13,0-19.4,0.1c-2.2,0-4.5-0.2-5.3,2.6c-2.5,7-1.7,14.3-1,21.3
	c1.1,10.6,0.6,21.3,1.4,31.9c0.7,9.2,1.1,18.6,1.4,27.9c0.5,20.1,1.5,40.2,2.8,60.3c0.5,8,0.5,15.9,0.9,23.9
	c1,17.9,1.4,35.9,2.4,53.8c0.8,14.3,0.8,28.6,2,42.8c1,11.6,6.8,20.3,15.9,27.1c1,4.7,5.1,4.9,8.6,5.7c3.1,1,6.5,0.5,9.6,1.8
	c2.4,1.4,4.9,1.9,7.6,2c6.7,0.2,8,1.5,8.1,8.5c0.1,10.6,0,21.3,0,31.9c0,7.1,0.1,7,7.2,7.6c12.9,1,25.8,2.2,38.8,2
	c2,0,4.5-0.6,5.3,2.3c-40.4,0-80.7,0-121.1,0.1c-3,0-5.8-1.6-8.9-0.9c-29.4-3.7-55.2-28.3-60.8-58.1C1.8,437.6,1.4,435.3,1,433z"/>
<path class="st6" d="M193,498.8c-1.2-1.3-2.8-0.9-4.2-0.8c-14.9,0.6-29.8-1.5-44.7-2c-3.5-0.1-4.1-1.9-4.1-4.8c0.1-12,0-24,0-35.9
	c0-7.1,0-7.1-7-7.3c-3-0.1-6-0.1-8-3c1.7-1.8,4-1.4,6.1-1.4c37.7,0,75.4,0,113.1,0c2.3,0,4.7,0,6.7,1.4c11.3,0,22.7,0,34,0
	c1.6,1.2,3.5,0.9,5.3,1c4.8,0.2,6,1.3,6.1,6.5c0.3,9.8,0.1,19.6,0.1,29.5c0,12.2,0,12.2,12.1,13.3c8.1,0.7,16.2,1.5,24.4,1.3
	c2.1-0.1,4.9-0.8,5.8,2.3C290.3,498.8,241.6,498.8,193,498.8z"/>
<path class="st7" d="M338.9,498.8c-1.4-1.4-3.1-0.9-4.7-0.8c-11.9,0.6-23.7-1.5-35.6-2c-3.7-0.1-3.6-2.6-3.6-5.2
	c0-12.5-0.1-24.9,0.1-37.4c0.1-4.4-0.7-7.2-5.9-6.5c-1.7,0.2-3.3-0.1-4.2-2c28.3,0,56.6-0.2,84.9,0.1c13.7,0.1,24.8-4.4,33.2-15.5
	c1.7-2.2,4.4-3.8,6.9-5.9c-1.6,5.8-0.9,11.2-1,16.7c-0.1,16,0.1,31.9-0.1,47.9c-0.1,4.3,0.7,6.4,5.6,7.3c5.5,0.9,11.1,1.5,16.6,2.5
	c-1.3,1.1-2.8,0.9-4.3,0.9C397.5,498.9,368.2,498.8,338.9,498.8z"/>
<path class="st8" d="M433.9,3.1c-7.8-0.1-15.4,1.4-23.2,2.1c-3.4,0.3-3.8,3-3.8,5.9c0,17.1,0,34.2,0,51.4c0,24.1-0.1,48.2,0.1,72.3
	c0,4.5-0.4,7.6-5.9,7.4c-1,0-1.7,0.9-2.2,1.8c-1.4,1.6-3.3,1.4-5.1,1.4c-17.4,0-34.8,0.1-52.3,0c-5.8,0-6.1-0.7-7.1-6.5
	c-1.1-5.8-0.3-12-3.8-17.2c-2.1-1.5-2.3-4-3-6.1c-7.1-20.5-18.6-37.9-36.9-50c-16.9-11.2-35.6-15.1-55.7-11.2
	c-2.3,0.4-4.5,1.2-6.9,0.9c-3.6-1.2-2.2-2.6,0-3.7c5.3-2.6,11.2-3.4,17-3.7c9.9-0.6,19.7,0.4,28.9,4.1c5.4,2.2,11.1,3.4,16.4,6.1
	c3.6,1.8,3-1.3,3-3c0.1-12.1,0-24.3,0.1-36.4c0-2.8,0-5.7,0.1-8.5c0.1-4,2.1-6.1,6.1-6.4c5.8-0.4,11.5-1.8,17.3-2
	c36.5,0,73.1,0,109.6,0c1.8,0,3.7-0.4,5.4,0.4C432.8,2.1,433.6,2.2,433.9,3.1z"/>
<path class="st9" d="M432,2c-38.7,0-77.3,0.1-116,0.1c-7.9,0.8-15.8,1.6-23.8,1.6c-38.9-0.1-77.7,0-116.6-0.1c-2.9,0-6,0.7-8.6-1.5
	C134.3,2.1,101.7,2,69,2c1.6-1.4,3.5-0.9,5.3-0.9c117.2,0,234.3-0.1,351.5,0C427.8,1.1,430.1,0.5,432,2z"/>
<path class="st10" d="M229.4,54.2c45.6-11.1,82.1,17,96.7,54c1.7,4.3,3.1,8.7,4.7,13.1c3.5,5.6,3,12.1,4,18.2
	c0.9,5.4,0.5,5.5,6.3,5.5c23.1,0,46.3,0,69.4,0c2.1,0,4.4-0.7,6.1,1.1c3.5,2.6,4.4,6.1,4.2,10.5c-2.1,42.1-4.1,84.1-6.1,126.2
	c-2,41.4-4,82.8-6.1,124.2c-0.9,17.7-11.3,30.3-28.7,34.9c-1.8,0.7-3.6,0.4-5.4,0.4c-40.4,0-80.9-0.8-121.3,0.2
	c-42.6,1.1-85.1,0.1-127.7,0.7c-2.3,0-4.7,0.1-7-0.2c-0.9-0.2-1.8-0.2-2.7-0.2c-3-0.4-5.8-1.3-7.6-4c-12.3-7.7-17.7-19-18.3-33.4
	c-3.2-76.5-6.7-153-10.1-229.6c-0.3-6.7-0.5-13.3-1.1-19.9c-0.3-3.4,0.5-6.2,2.7-8.7c1.5-2.8,4.2-2.2,6.7-2.2
	c23,0.3,45.9-0.6,68.9-0.4c6.7,0,7.1-0.6,7.8-7.3c0.8-7.4,1.8-14.8,4-22c3-5.7,5-11.9,8.1-17.6C187,78.9,201.3,64.5,221.2,56
	C223.9,54.8,226.7,54.8,229.4,54.2z"/>
<path class="st7" d="M115,441.8c0.7,0.1,1.3,0.2,2,0.2c1.8,0.8,3.6,0.4,5.4,0.4c40.8,0,81.5,0,122.3,0.1c1.8,0,3.7-0.6,5.3,0.6
	c0.3,0.6,0.6,1.2,1,1.8c-42,0-84,0-126,0c-3.4,0.4-6.7-0.5-10-1C114.5,443.2,114.5,442.5,115,441.8z"/>
<path class="st6" d="M250,443.1c-42.3,0-84.5-0.1-126.8-0.2c-2.1,0-4.4,0.8-6.2-0.9c52.5,0.1,105,0.2,157.4,0.2
	c35.2,0,70.3-0.1,105.5-0.2c-1.9,1.7-4.1,0.9-6.2,0.9C332.5,443,291.3,443.1,250,443.1z"/>
<path class="st11" d="M416.7,146.2c-2.3-0.2-4.6-0.5-6.9-0.5c-23.6,0-47.2-0.1-70.8,0.1c-3.9,0-5.2-1-5.2-4.9
	c0.1-6.6-2.1-13-2.9-19.6c0.6-2.4,1.2-1.3,1.7,0c2.4,5.9,2.8,12.2,3.3,18.5c0.3,3.6,1.5,4.4,4.8,4.4c19.4-0.1,38.9-0.1,58.3-0.1
	c5,0,10-0.1,15,0.1C415.2,144.1,417.6,143.1,416.7,146.2z"/>
<path class="st6" d="M229.4,54.2c-28.1,9.5-46.3,29-57,56.2c-0.5,1.3-0.6,3-2.3,3.7c-3.6,6.9-4.3,14.6-5,22.1
	c-0.9,8.5-0.8,8.8-9.4,8.8c-8.5,0-17,0-25.5,0c-1.8,0-3.7,0.5-5.2-1c1.9-3.3,5.1-1.9,7.7-1.9c7.6-0.2,8.3-0.8,8.3-8.3
	c0-40.6,0-81.2,0-121.9c0-6.5,0.4-6.2,6.7-7.1C154.1,4,161,5.8,167,2.1c49.7,0,99.3,0,149,0c-5.3,1-10.5,2.4-15.9,2.8
	c-3.9,0.3-5.2,1.4-5.2,5.3c0.2,15.6,0.1,31.2,0,46.8c0,1.4,0.7,3.3-0.6,4.2c-1.5,1.1-2.5-1-3.8-1.5c-9.9-3.9-19.6-8.4-30.4-9.8
	c-10.9-1.5-21.4-1-31.7,2.9c-0.5,0.2-1,0.4-2.5,1C227.8,54,228.6,54.1,229.4,54.2z"/>
<path class="st12" d="M125,144c10.8,0,21.6-0.3,32.4,0.1c5.3,0.2,6.6-2.2,6.6-6.7c0.1-7,1.9-13.7,3.8-20.4c0.4-1.4,0.8-2.5,2.3-3
	c-2,9.7-4.1,19.3-4.8,29.2c-0.2,3.4-2.6,2.4-4.4,2.4c-14.8,0-29.6,0-44.5,0c-9.3,0-18.7,0-28,0c-2.5,0-5,0.2-7.2,1.5
	c-0.7-4.3,2.7-3.1,4.7-3.1C99,144,112,144,125,144z"/>
<path class="st6" d="M115,441.8c0,0.7,0,1.4,0,2.1c-2.9-0.4-5.3-2-7.6-3.5c-1.6-1-0.2-1.4,0.8-1.6
	C110.5,439.8,112.8,440.8,115,441.8z"/>
<path class="st13" d="M252.5,391.2c-24.7-0.8-46.4-7.5-65.1-22.8c-3.1-2.6-3.4-4.3-1.1-7.7c7.1-10.1,6.8-10.1,17.1-3.2
	c18.8,12.5,39.1,19.3,61.9,13.5c10.9-2.7,20.2-8,25.7-18.2c7.5-14,2.8-29.5-11.6-40.2c-8-5.9-17.1-9.4-26.4-12.8
	c-15.3-5.6-31.1-10.1-44.1-20.5c-18.1-14.4-23.4-37.2-12.9-56.8c8-14.9,21.1-23.5,37.4-26.6c24.4-4.7,46.8,1.6,67.8,14.3
	c3,1.8,3.7,3.7,1.7,6.9c-6.2,10-6.1,10.1-16.2,4.7c-11.5-6.2-23.7-9.7-36.7-10.1c-6.7-0.2-13.3,0.6-19.5,3.3
	c-10.9,4.7-18.7,12.2-20.5,24.4c-1.8,12.9,5,21.6,15,28.3c7.4,5,15.6,8.1,24,11c15.6,5.3,30.9,11.5,44.4,21.3
	c32.5,23.8,20.7,67.7-5.7,82.3C276.3,388.5,264.2,390.9,252.5,391.2z"/>
<path class="st14" d="M189,143c1.5-25.6,11.4-46.8,33.5-60.7c23.8-15,54-8.2,71.7,15.3c2.7,3.5,5.7,6.9,6.8,11.4
	c0.6,5.2,3.5,9.6,5,14.5c1.6,5.6,3.1,11.1,3.5,16.9c0.2,2.8-0.8,4.1-3.4,4.5c-0.8,0.1-1.7,0.1-2.5,0.1c-35.9,0-71.9,0-107.8,0
	c-2.3,0-5.4,0.8-5.3-3.3c-0.1,0.1-0.1,0.3-0.1,0.4C190.3,142.8,189.8,143.1,189,143z"/>
<path class="st15" d="M189,143c2-1.6,0.4-4.1,1.6-6.2c0.9,7.2,0.9,7.2,8.2,7.2c34.6,0,69.1-0.1,103.7,0.1c4.4,0,6.2-0.4,5.8-5.8
	c-0.6-8.3-3.8-15.7-6.3-23.3c-0.6-1.9-2.6-3.6-1-5.9c5.4,10.5,8.6,21.6,9.8,33.4c0.3,2.8-0.9,3.3-3.4,3.3
	c-38.4-0.1-76.8,0-115.2-0.1C190.5,145.7,188.1,146.2,189,143z"/>
</svg>
