<svg width="39" height="46" viewBox="0 0 39 46" fill="none" xmlns="http://www.w3.org/2000/svg">
<path fill-rule="evenodd" clip-rule="evenodd" d="M4.47587 40.1543C-4.86466 32.0024 1.17642 13.8528 15.5362 16.1363V17.8172C3.4087 17.25 -1.92969 31.7991 4.47587 40.1543ZM30.6688 8.66933C32.1443 9.85514 34.1791 10.7299 36.9842 10.8968V12.5436C33.8801 11.967 31.9128 10.4156 30.6688 8.66933ZM26.775 0C26.7729 0.607683 26.8513 1.26048 26.9503 1.85675H21.2257V30.5231C21.2257 31.8448 21.0906 33.0212 20.8215 34.0536C18.4903 39.2215 11.8898 38.5464 10.0659 34.9998C12.7812 36.7099 17.2463 36.2556 19.079 32.1968C19.3461 31.1666 19.4811 29.9875 19.4811 28.6664V0H26.7755H26.775Z" fill="#00F7EF"/>
<path fill-rule="evenodd" clip-rule="evenodd" d="M27.8289 2.1134V2.14998C27.831 2.80932 28.0243 12.344 38.0362 12.939C38.0362 21.8092 38.0408 12.939 38.0408 20.3061C37.2888 20.3509 31.4507 19.929 27.8181 16.6905L27.8068 31.0322C27.8964 37.5262 24.2793 43.8951 17.5072 45.1782C15.61 45.5372 13.9014 45.5779 11.0336 44.9516C-5.48746 40.0127 0.0022198 15.5238 16.5908 18.1447C16.5908 26.0506 16.5955 18.1426 16.5955 26.0506C9.74252 25.043 7.44996 30.7407 9.27143 34.8198C10.929 38.5338 17.7521 39.3394 20.1322 34.0997C20.4018 33.0741 20.5363 31.9048 20.5363 30.5923V2.1134H27.8289Z" fill="black"/>
<path fill-rule="evenodd" clip-rule="evenodd" d="M15.1434 17.9695C15.7016 17.9943 16.2761 18.0499 16.8639 18.1442C16.8639 26.0501 16.8684 18.1421 16.8684 26.0501C10.1028 25.0425 7.8394 30.7402 9.63768 34.8193C9.67075 34.8935 9.70637 34.9677 9.74403 35.0393C8.93953 34.5298 8.29228 33.8298 7.91573 32.9747C6.11999 28.895 8.38082 23.1979 15.1465 24.205C15.1465 16.9589 15.1445 22.9888 15.1445 17.969L15.1434 17.9695ZM36.3136 12.7304C36.852 12.8308 37.4265 12.9024 38.0361 12.939C38.0361 21.8092 38.0407 12.939 38.0407 20.3061C37.2983 20.3509 31.5345 19.929 27.9481 16.6905L27.9369 31.0322C28.0255 37.5262 24.4544 43.8951 17.7686 45.1782C15.8955 45.5372 14.2087 45.5779 11.3774 44.9516C8.19 43.9868 5.83606 42.2725 4.22656 40.1605C5.6605 41.4215 7.46031 42.4425 9.65752 43.109C12.4857 43.7328 14.1731 43.6926 16.0461 43.3331C22.7319 42.0494 26.303 35.6811 26.2165 29.1892L26.2257 14.8454C29.8121 18.0839 35.5758 18.5078 36.3208 18.4604C36.3208 11.6187 36.3141 18.7793 36.3141 12.7298L36.3136 12.7304ZM27.9588 2.1134V2.14998C27.9588 2.53785 28.0275 5.98034 30.0802 8.88144C27.6062 6.87766 26.7244 3.98326 26.4094 2.1134H27.9588Z" fill="#FF004F"/>
</svg>
