<svg width="29" height="33" viewBox="0 0 29 33" fill="none" xmlns="http://www.w3.org/2000/svg">
<path d="M22.2424 5.1638C21.0204 3.74559 20.3469 1.92462 20.3471 0.0395508H14.8223V22.5717C14.7806 23.7913 14.2743 24.9468 13.4103 25.7943C12.5464 26.6419 11.3922 27.1152 10.1914 27.1145C7.65252 27.1145 5.54271 25.0066 5.54271 22.39C5.54271 19.2646 8.51075 16.9205 11.5682 17.8836V12.1415C5.39968 11.3056 0 16.1755 0 22.39C0 28.441 4.9348 32.7475 10.1736 32.7475C15.7878 32.7475 20.3471 28.1139 20.3471 22.39V10.9604C22.5874 12.5955 25.2772 13.4728 28.0354 13.468V7.85312C28.0354 7.85312 24.674 8.01666 22.2424 5.1638Z" fill="white"/>
</svg>
