<svg width="18" height="18" viewBox="0 0 18 18" fill="none" xmlns="http://www.w3.org/2000/svg">
<path fill-rule="evenodd" clip-rule="evenodd" d="M2.6 3.59988C2.93137 3.59988 3.2 3.86851 3.2 4.19988V8.39988H8.4V4.19988C8.4 3.86851 8.66863 3.59988 9 3.59988C9.33137 3.59988 9.6 3.86851 9.6 4.19988V8.39988H14.8V4.19988C14.8 3.86851 15.0686 3.59988 15.4 3.59988C15.7314 3.59988 16 3.86851 16 4.19988V8.99988C16 9.33125 15.7314 9.59988 15.4 9.59988H9.6V13.7999C9.6 14.1313 9.33137 14.3999 9 14.3999C8.66863 14.3999 8.4 14.1313 8.4 13.7999V9.59988H3.2V13.7999C3.2 14.1313 2.93137 14.3999 2.6 14.3999C2.26863 14.3999 2 14.1313 2 13.7999V4.19988C2 3.86851 2.26863 3.59988 2.6 3.59988Z" fill="#1D51A2"/>
<path d="M17 2.59991C17 3.02425 16.8314 3.43122 16.5314 3.73128C16.2313 4.03134 15.8243 4.19991 15.4 4.19991C14.9757 4.19991 14.5687 4.03134 14.2686 3.73128C13.9686 3.43122 13.8 3.02425 13.8 2.59991C13.8 2.17556 13.9686 1.7686 14.2686 1.46854C14.5687 1.16848 14.9757 0.999908 15.4 0.999908C15.8243 0.999908 16.2313 1.16848 16.5314 1.46854C16.8314 1.7686 17 2.17556 17 2.59991ZM10.6 2.59991C10.6 3.02425 10.4314 3.43122 10.1314 3.73128C9.83131 4.03134 9.42435 4.19991 9 4.19991C8.57565 4.19991 8.16869 4.03134 7.86863 3.73128C7.56857 3.43122 7.4 3.02425 7.4 2.59991C7.4 2.17556 7.56857 1.7686 7.86863 1.46854C8.16869 1.16848 8.57565 0.999908 9 0.999908C9.42435 0.999908 9.83131 1.16848 10.1314 1.46854C10.4314 1.7686 10.6 2.17556 10.6 2.59991ZM4.2 2.59991C4.2 3.02425 4.03143 3.43122 3.73137 3.73128C3.43131 4.03134 3.02435 4.19991 2.6 4.19991C2.17565 4.19991 1.76869 4.03134 1.46863 3.73128C1.16857 3.43122 1 3.02425 1 2.59991C1 2.17556 1.16857 1.7686 1.46863 1.46854C1.76869 1.16848 2.17565 0.999908 2.6 0.999908C3.02435 0.999908 3.43131 1.16848 3.73137 1.46854C4.03143 1.7686 4.2 2.17556 4.2 2.59991ZM10.6 15.3999C10.6 15.8243 10.4314 16.2312 10.1314 16.5313C9.83131 16.8313 9.42435 16.9999 9 16.9999C8.57565 16.9999 8.16869 16.8313 7.86863 16.5313C7.56857 16.2312 7.4 15.8243 7.4 15.3999C7.4 14.9756 7.56857 14.5686 7.86863 14.2685C8.16869 13.9685 8.57565 13.7999 9 13.7999C9.42435 13.7999 9.83131 13.9685 10.1314 14.2685C10.4314 14.5686 10.6 14.9756 10.6 15.3999ZM4.2 15.3999C4.2 15.8243 4.03143 16.2312 3.73137 16.5313C3.43131 16.8313 3.02435 16.9999 2.6 16.9999C2.17565 16.9999 1.76869 16.8313 1.46863 16.5313C1.16857 16.2312 1 15.8243 1 15.3999C1 14.9756 1.16857 14.5686 1.46863 14.2685C1.76869 13.9685 2.17565 13.7999 2.6 13.7999C3.02435 13.7999 3.43131 13.9685 3.73137 14.2685C4.03143 14.5686 4.2 14.9756 4.2 15.3999ZM15.4 16.9999C15.8243 16.9999 16.2313 16.8313 16.5314 16.5313C16.8314 16.2312 17 15.8243 17 15.3999C17 14.9756 16.8314 14.5686 16.5314 14.2685C16.2313 13.9685 15.8243 13.7999 15.4 13.7999C14.9757 13.7999 14.5687 13.9685 14.2686 14.2685C13.9686 14.5686 13.8 14.9756 13.8 15.3999C13.8 15.8243 13.9686 16.2312 14.2686 16.5313C14.5687 16.8313 14.9757 16.9999 15.4 16.9999Z" fill="#1D51A2"/>
<path fill-rule="evenodd" clip-rule="evenodd" d="M2.5999 1.5999C2.33469 1.5999 2.08033 1.70526 1.8928 1.8928C1.70526 2.08033 1.5999 2.33469 1.5999 2.5999C1.5999 2.86512 1.70526 3.11947 1.8928 3.30701C2.08033 3.49455 2.33469 3.5999 2.5999 3.5999C2.86512 3.5999 3.11947 3.49455 3.30701 3.30701C3.49455 3.11947 3.5999 2.86512 3.5999 2.5999C3.5999 2.33469 3.49455 2.08033 3.30701 1.8928C3.11947 1.70526 2.86512 1.5999 2.5999 1.5999ZM1.04427 1.04427C1.45685 0.631687 2.01643 0.399902 2.5999 0.399902C3.18338 0.399902 3.74296 0.631687 4.15554 1.04427C4.56812 1.45685 4.7999 2.01643 4.7999 2.5999C4.7999 3.18338 4.56812 3.74296 4.15554 4.15554C3.74296 4.56812 3.18338 4.7999 2.5999 4.7999C2.01643 4.7999 1.45685 4.56812 1.04427 4.15554C0.631687 3.74296 0.399902 3.18338 0.399902 2.5999C0.399902 2.01643 0.631687 1.45685 1.04427 1.04427ZM8.9999 1.5999C8.73469 1.5999 8.48033 1.70526 8.2928 1.8928C8.10526 2.08033 7.9999 2.33469 7.9999 2.5999C7.9999 2.86512 8.10526 3.11947 8.2928 3.30701C8.48033 3.49455 8.73469 3.5999 8.9999 3.5999C9.26512 3.5999 9.51947 3.49455 9.70701 3.30701C9.89455 3.11947 9.9999 2.86512 9.9999 2.5999C9.9999 2.33469 9.89455 2.08033 9.70701 1.8928C9.51947 1.70526 9.26512 1.5999 8.9999 1.5999ZM7.44427 1.04427C7.85685 0.631687 8.41643 0.399902 8.9999 0.399902C9.58338 0.399902 10.143 0.631687 10.5555 1.04427C10.9681 1.45685 11.1999 2.01643 11.1999 2.5999C11.1999 3.18338 10.9681 3.74296 10.5555 4.15554C10.143 4.56812 9.58338 4.7999 8.9999 4.7999C8.41643 4.7999 7.85685 4.56812 7.44427 4.15554C7.03169 3.74296 6.7999 3.18338 6.7999 2.5999C6.7999 2.01643 7.03169 1.45685 7.44427 1.04427ZM15.3999 1.5999C15.1347 1.5999 14.8803 1.70526 14.6928 1.8928C14.5053 2.08033 14.3999 2.33469 14.3999 2.5999C14.3999 2.86512 14.5053 3.11947 14.6928 3.30701C14.8803 3.49455 15.1347 3.5999 15.3999 3.5999C15.6651 3.5999 15.9195 3.49455 16.107 3.30701C16.2945 3.11947 16.3999 2.86512 16.3999 2.5999C16.3999 2.33469 16.2945 2.08033 16.107 1.8928C15.9195 1.70526 15.6651 1.5999 15.3999 1.5999ZM13.8443 1.04427C14.2568 0.631687 14.8164 0.399902 15.3999 0.399902C15.9834 0.399902 16.543 0.631687 16.9555 1.04427C17.3681 1.45685 17.5999 2.01643 17.5999 2.5999C17.5999 3.18338 17.3681 3.74296 16.9555 4.15554C16.543 4.56812 15.9834 4.7999 15.3999 4.7999C14.8164 4.7999 14.2568 4.56812 13.8443 4.15554C13.4317 3.74296 13.1999 3.18338 13.1999 2.5999C13.1999 2.01643 13.4317 1.45685 13.8443 1.04427ZM2.5999 14.3999C2.33469 14.3999 2.08033 14.5053 1.8928 14.6928C1.70526 14.8803 1.5999 15.1347 1.5999 15.3999C1.5999 15.6651 1.70526 15.9195 1.8928 16.107C2.08033 16.2945 2.33469 16.3999 2.5999 16.3999C2.86512 16.3999 3.11947 16.2945 3.30701 16.107C3.49455 15.9195 3.5999 15.6651 3.5999 15.3999C3.5999 15.1347 3.49455 14.8803 3.30701 14.6928C3.11947 14.5053 2.86512 14.3999 2.5999 14.3999ZM1.04427 13.8443C1.45685 13.4317 2.01643 13.1999 2.5999 13.1999C3.18338 13.1999 3.74296 13.4317 4.15554 13.8443C4.56812 14.2568 4.7999 14.8164 4.7999 15.3999C4.7999 15.9834 4.56812 16.543 4.15554 16.9555C3.74296 17.3681 3.18338 17.5999 2.5999 17.5999C2.01643 17.5999 1.45685 17.3681 1.04427 16.9555C0.631687 16.543 0.399902 15.9834 0.399902 15.3999C0.399902 14.8164 0.631687 14.2568 1.04427 13.8443ZM8.9999 14.3999C8.73469 14.3999 8.48033 14.5053 8.2928 14.6928C8.10526 14.8803 7.9999 15.1347 7.9999 15.3999C7.9999 15.6651 8.10526 15.9195 8.2928 16.107C8.48033 16.2945 8.73469 16.3999 8.9999 16.3999C9.26512 16.3999 9.51947 16.2945 9.70701 16.107C9.89455 15.9195 9.9999 15.6651 9.9999 15.3999C9.9999 15.1347 9.89455 14.8803 9.70701 14.6928C9.51947 14.5053 9.26512 14.3999 8.9999 14.3999ZM7.44427 13.8443C7.85685 13.4317 8.41643 13.1999 8.9999 13.1999C9.58338 13.1999 10.143 13.4317 10.5555 13.8443C10.9681 14.2568 11.1999 14.8164 11.1999 15.3999C11.1999 15.9834 10.9681 16.543 10.5555 16.9555C10.143 17.3681 9.58338 17.5999 8.9999 17.5999C8.41643 17.5999 7.85685 17.3681 7.44427 16.9555C7.03169 16.543 6.7999 15.9834 6.7999 15.3999C6.7999 14.8164 7.03169 14.2568 7.44427 13.8443ZM13.8443 13.8443C14.2568 13.4317 14.8164 13.1999 15.3999 13.1999C15.9834 13.1999 16.543 13.4317 16.9555 13.8443C17.3681 14.2568 17.5999 14.8164 17.5999 15.3999C17.5999 15.9834 17.3681 16.543 16.9555 16.9555C16.543 17.3681 15.9834 17.5999 15.3999 17.5999C14.8164 17.5999 14.2568 17.3681 13.8443 16.9555C13.4317 16.543 13.1999 15.9834 13.1999 15.3999C13.1999 14.8164 13.4317 14.2568 13.8443 13.8443ZM15.3999 14.3999C15.1347 14.3999 14.8803 14.5053 14.6928 14.6928C14.5053 14.8803 14.3999 15.1347 14.3999 15.3999C14.3999 15.6651 14.5053 15.9195 14.6928 16.107C14.8803 16.2945 15.1347 16.3999 15.3999 16.3999C15.6651 16.3999 15.9195 16.2945 16.107 16.107C16.2945 15.9195 16.3999 15.6651 16.3999 15.3999C16.3999 15.1347 16.2945 14.8803 16.107 14.6928C15.9195 14.5053 15.6651 14.3999 15.3999 14.3999Z" fill="#1D51A2"/>
</svg>
