<svg width="24" height="16" viewBox="0 0 24 16" fill="none" xmlns="http://www.w3.org/2000/svg">
<path d="M12.0773 0H12.2108C13.4438 0.00427084 19.6917 0.0469795 21.3763 0.476911C21.8856 0.608123 22.3497 0.863881 22.7222 1.21863C23.0946 1.57337 23.3625 2.01468 23.499 2.49844C23.6505 3.03942 23.757 3.75549 23.829 4.49435L23.844 4.64241L23.877 5.01255L23.889 5.1606C23.9865 6.46178 23.9985 7.6804 24 7.94661V8.05339C23.9985 8.32957 23.985 9.63075 23.877 10.986L23.865 11.1355L23.8515 11.2836C23.7765 12.0979 23.6655 12.9065 23.499 13.5016C23.3629 13.9855 23.0952 14.427 22.7227 14.7818C22.3501 15.1366 21.8858 15.3923 21.3763 15.5231C19.6362 15.9673 13.0223 15.9986 12.1058 16H11.8927C11.4292 16 9.51209 15.9915 7.50197 15.926L7.24695 15.9174L7.11645 15.9117L6.85993 15.9018L6.60341 15.8918C4.93831 15.822 3.35271 15.7096 2.62216 15.5217C2.11287 15.391 1.6487 15.1356 1.27617 14.781C0.903632 14.4265 0.63581 13.9853 0.499531 13.5016C0.333021 12.9079 0.222014 12.0979 0.147009 11.2836L0.135008 11.1341L0.123008 10.986C0.0489745 10.0214 0.0079503 9.05472 0 8.08755L0 7.91245C0.00300019 7.60637 0.0150009 6.54862 0.096006 5.38126L0.106507 5.23463L0.111007 5.1606L0.123008 5.01255L0.15601 4.64241L0.171011 4.49435C0.243015 3.75549 0.349522 3.03799 0.501031 2.49844C0.63708 2.01448 0.9048 1.57297 1.27735 1.21816C1.6499 0.863356 2.11419 0.60773 2.62366 0.476911C3.35421 0.291841 4.93981 0.177952 6.60491 0.106771L6.85993 0.0968057L7.11795 0.0882643L7.24695 0.0839934L7.50347 0.0740282C8.93112 0.0304294 10.3594 0.00622527 11.7877 0.00142368H12.0773V0ZM9.6006 4.5698V11.4288L15.8365 8.00071L9.6006 4.5698Z" fill="#1D51A2"/>
</svg>
