<svg width="34" height="22" viewBox="0 0 34 22" fill="none" xmlns="http://www.w3.org/2000/svg">
<path d="M17.1052 0.0909424H17.2873C18.9687 0.0967663 27.4886 0.155005 29.7858 0.741276C30.4802 0.920202 31.1131 1.26896 31.621 1.7527C32.1289 2.23645 32.4942 2.83823 32.6803 3.49791C32.8869 4.2356 33.0321 5.21207 33.1303 6.2196L33.1508 6.4215L33.1958 6.92623L33.2121 7.12813C33.3451 8.90247 33.3615 10.5642 33.3635 10.9272V11.0728C33.3615 11.4494 33.343 13.2238 33.1958 15.0719L33.1794 15.2757L33.161 15.4776C33.0587 16.588 32.9073 17.6907 32.6803 18.5022C32.4948 19.1621 32.1297 19.7642 31.6217 20.248C31.1136 20.7318 30.4805 21.0804 29.7858 21.2588C27.4129 21.8645 18.3939 21.9072 17.1441 21.9091H16.8536C16.2215 21.9091 13.6073 21.8975 10.8662 21.8082L10.5184 21.7965L10.3405 21.7888L9.99068 21.7752L9.64088 21.7616C7.37029 21.6665 5.20811 21.5131 4.21191 21.2569C3.51741 21.0786 2.88446 20.7303 2.37646 20.2469C1.86846 19.7634 1.50324 19.1617 1.31741 18.5022C1.09035 17.6926 0.938977 16.588 0.836698 15.4776L0.820333 15.2738L0.803968 15.0719C0.703014 13.7565 0.647072 12.4383 0.63623 11.1194L0.63623 10.8806C0.640322 10.4633 0.656686 9.02089 0.767148 7.42903L0.781467 7.22907L0.787604 7.12813L0.803968 6.92623L0.848971 6.4215L0.869427 6.2196C0.967615 5.21207 1.11285 4.23366 1.31945 3.49791C1.50498 2.83796 1.87005 2.2359 2.37807 1.75207C2.88609 1.26825 3.51921 0.919665 4.21395 0.741276C5.21015 0.488908 7.37233 0.333604 9.64293 0.236539L9.99068 0.22295L10.3425 0.211303L10.5184 0.205479L10.8682 0.19189C12.815 0.132437 14.7626 0.0994314 16.7104 0.0928838H17.1052V0.0909424ZM13.728 6.32249V15.6756L22.2314 11.001L13.728 6.32249Z" fill="white"/>
</svg>
