<svg width="76" height="53" viewBox="0 0 76 53" fill="none" xmlns="http://www.w3.org/2000/svg">
<path d="M38.2446 0H38.6674C42.5722 0.0141472 62.3572 0.15562 67.6917 1.57977C69.3044 2.01441 70.774 2.86161 71.9535 4.0367C73.133 5.21179 73.9813 6.67361 74.4134 8.27609C74.8932 10.0681 75.2305 12.4401 75.4585 14.8875L75.506 15.378L75.6105 16.6041L75.6485 17.0945C75.9573 21.4047 75.9952 25.4413 76 26.3232V26.6768C75.9952 27.5917 75.9525 31.9019 75.6105 36.3912L75.5725 36.8864L75.5297 37.3768C75.2922 40.0742 74.9407 42.7527 74.4134 44.7239C73.9826 46.327 73.1348 47.7896 71.9551 48.9648C70.7753 50.1401 69.3051 50.9869 67.6917 51.4202C62.1814 52.8915 41.2373 52.9953 38.3349 53H37.6604C36.1925 53 30.1216 52.9717 23.7562 52.7548L22.9487 52.7265L22.5354 52.7076L21.7231 52.6746L20.9108 52.6416C15.638 52.4105 10.6169 52.038 8.30352 51.4155C6.69074 50.9826 5.22089 50.1365 4.04119 48.9621C2.8615 47.7877 2.0134 46.3262 1.58185 44.7239C1.05457 42.7575 0.703044 40.0742 0.465529 37.3768L0.427527 36.8817L0.389524 36.3912C0.155086 33.1958 0.0251759 29.9938 0 26.79L0 26.21C0.00950059 25.1961 0.047503 21.6923 0.304019 17.8254L0.337271 17.3397L0.351522 17.0945L0.389524 16.6041L0.494031 15.378L0.541534 14.8875C0.769548 12.4401 1.10682 10.0634 1.5866 8.27609C2.01742 6.67297 2.8652 5.21045 4.04494 4.03516C5.22468 2.85987 6.69492 2.01311 8.30827 1.57977C10.6217 0.966724 15.6427 0.589465 20.9156 0.353679L21.7231 0.320669L22.5402 0.292376L22.9487 0.278228L23.761 0.245218C28.2819 0.100797 32.8046 0.0206212 37.3278 0.00471594H38.2446V0ZM30.4019 15.1375V37.8578L50.1489 26.5024L30.4019 15.1375Z" fill="#FF1414"/>
</svg>
