<svg width="40" height="15" viewBox="0 0 40 15" fill="none" xmlns="http://www.w3.org/2000/svg">
<path d="M20.8167 4.85316V4.10511H23.0617V14.6143H21.7783C21.5243 14.6147 21.2804 14.5147 21.1002 14.3362C20.9199 14.1576 20.818 13.9151 20.8167 13.6618C19.8797 14.3463 18.7481 14.716 17.5867 14.714C16.1356 14.714 14.744 14.1393 13.7176 13.1163C12.6913 12.0932 12.1142 10.7055 12.1133 9.25829C12.1142 7.81104 12.6913 6.42336 13.7176 5.40031C14.744 4.37726 16.1356 3.80257 17.5867 3.80257C18.7475 3.80092 19.8802 4.16899 20.8167 4.85316ZM11.5317 0.727295V1.06807C11.5317 1.70307 11.4467 2.22171 11.0317 2.83012L10.9817 2.88664C10.8435 3.0414 10.7091 3.19937 10.5783 3.3604L3.37333 12.3801H11.5317V13.6568C11.5317 13.7826 11.5068 13.9073 11.4584 14.0236C11.4101 14.1398 11.3392 14.2455 11.2499 14.3344C11.1606 14.4233 11.0546 14.4938 10.9379 14.5419C10.8212 14.5899 10.6962 14.6145 10.57 14.6143H0V14.0125C0 13.2761 0.183333 12.947 0.416667 12.6045L8.09667 3.12102H0.32V0.727295H11.5317ZM25.7833 14.6143C25.5712 14.6143 25.3677 14.5302 25.2176 14.3806C25.0676 14.2309 24.9833 14.028 24.9833 13.8163V0.727295H27.385V14.6143H25.7833ZM34.4883 3.73608C35.2119 3.73586 35.9285 3.8778 36.597 4.15377C37.2656 4.42975 37.8732 4.83437 38.385 5.34453C38.8968 5.85469 39.3028 6.4604 39.5799 7.12708C39.857 7.79375 39.9998 8.50833 40 9.23003C40.0002 9.95172 39.8579 10.6664 39.5812 11.3332C39.3045 12.0001 38.8988 12.606 38.3873 13.1165C37.8758 13.627 37.2685 14.0319 36.6001 14.3083C35.9317 14.5847 35.2152 14.7271 34.4917 14.7273C33.0303 14.7277 31.6287 14.1492 30.595 13.1188C29.5614 12.0885 28.9804 10.6909 28.98 9.23335C28.9796 7.77582 29.5597 6.37782 30.5927 5.34688C31.6257 4.31594 33.027 3.73652 34.4883 3.73608ZM17.5883 12.4682C18.0172 12.4779 18.4438 12.4021 18.8429 12.2451C19.242 12.0881 19.6056 11.8532 19.9124 11.5541C20.2192 11.255 20.463 10.8977 20.6294 10.5033C20.7959 10.1089 20.8816 9.68536 20.8816 9.25745C20.8816 8.82955 20.7959 8.40597 20.6294 8.01158C20.463 7.61718 20.2192 7.25994 19.9124 6.96083C19.6056 6.66172 19.242 6.42678 18.8429 6.26979C18.4438 6.11281 18.0172 6.03696 17.5883 6.0467C16.7472 6.06579 15.947 6.41244 15.3589 7.0125C14.7709 7.61255 14.4416 8.41834 14.4416 9.25745C14.4416 10.0966 14.7709 10.9024 15.3589 11.5024C15.947 12.1025 16.7472 12.4491 17.5883 12.4682ZM34.4883 12.4632C35.3481 12.4632 36.1726 12.1226 36.7805 11.5162C37.3885 10.9099 37.73 10.0875 37.73 9.23003C37.73 8.37253 37.3885 7.55015 36.7805 6.94381C36.1726 6.33747 35.3481 5.99683 34.4883 5.99683C33.6286 5.99683 32.8041 6.33747 32.1961 6.94381C31.5882 7.55015 31.2467 8.37253 31.2467 9.23003C31.2467 10.0875 31.5882 10.9099 32.1961 11.5162C32.8041 12.1226 33.6286 12.4632 34.4883 12.4632Z" fill="#1D51A2"/>
</svg>
